<svg xmlns="http://www.w3.org/2000/svg" width="80" height="80" viewBox="0 0 80 80">
  <g id="Grupo_14" data-name="Grupo 14" transform="translate(-48 -38)">
    <rect id="Retângulo_1" data-name="Retângulo 1" width="80" height="80" transform="translate(48 38)" fill="#ef0243"/>
    <path id="_5e4c0d93451b2ce7546406bb_mol_red" data-name="5e4c0d93451b2ce7546406bb_mol_red" d="M41.205,27.552a9.085,9.085,0,0,0-2.211.281L32.15,15.9a9.334,9.334,0,0,0,2.6-6.493,9.424,9.424,0,0,0-18.848,0A9.334,9.334,0,0,0,18.5,15.9L11.617,27.8a9.085,9.085,0,0,0-2.211-.281,9.424,9.424,0,1,0,9.406,9.441,9.334,9.334,0,0,0-2.6-6.493l6.879-11.9a8.847,8.847,0,0,0,4.422,0l6.879,11.9a9.409,9.409,0,1,0,6.809-2.913Zm-31.8,14.18a4.773,4.773,0,1,1,4.773-4.773A4.778,4.778,0,0,1,9.406,41.732ZM20.532,9.406a4.773,4.773,0,1,1,4.773,4.773A4.778,4.778,0,0,1,20.532,9.406ZM41.205,41.732a4.773,4.773,0,1,1,4.773-4.773A4.778,4.778,0,0,1,41.205,41.732Z" transform="translate(62.794 54.868)" fill="#fff"/>
  </g>
</svg>
