<svg xmlns="http://www.w3.org/2000/svg" width="80" height="80" viewBox="0 0 80 80">
  <g id="Grupo_15" data-name="Grupo 15" transform="translate(-48 -38)">
    <rect id="Retângulo_1" data-name="Retângulo 1" width="80" height="80" transform="translate(48 38)" fill="#011e50"/>
    <g id="madeiramadeira" transform="translate(54.923 47.82)">
      <path id="Caminho_13" data-name="Caminho 13" d="M55.056,52.836,30.8,59.1a7.916,7.916,0,0,1-9.624-5.669l-6-23.467a7.916,7.916,0,0,1,5.669-9.624L45.1,14.076a7.916,7.916,0,0,1,9.624,5.669l6,23.467A7.894,7.894,0,0,1,55.056,52.836Z" transform="translate(-3.047 -3.662)" fill="#fff"/>
      <path id="Caminho_14" data-name="Caminho 14" d="M59.656,41.2,51.219,7.513A5.794,5.794,0,0,0,44.1,3.294h0L10.415,11.732A5.746,5.746,0,0,0,6.2,18.785L14.634,52.47a5.794,5.794,0,0,0,7.119,4.219L49.835,49.7l-.2-.2a6.228,6.228,0,0,0-5.01-1.714h0l-16.216-.2c-4.351,0-5.669-3.164-5.735-4.878L21.489,30.519H17.139A1.322,1.322,0,0,1,15.82,29.2a1.2,1.2,0,0,1,.4-.923L31.773,13.248a1.236,1.236,0,0,1,1.714-.066L49.9,27.618a1.215,1.215,0,0,1,.2,1.78,1.141,1.141,0,0,1-1.055.461H45.616v11.6A1.322,1.322,0,0,1,44.3,42.779l-8.7-.066-2.571-7.119-2.637,3.955V24.388l9.69,11.536-4.548-.989s.923,2.966,1.582,5.208h6.065V28.673A1.322,1.322,0,0,1,44.5,27.354h1.318L32.762,15.95,20.369,28.014h2.373A1.349,1.349,0,0,1,24.06,29.2l1.318,13.382h0c0,.4.264,2.439,3.164,2.439l16.15.132a8.269,8.269,0,0,1,6.921,2.571,6.269,6.269,0,0,1,.989,1.318l2.835-.725A5.814,5.814,0,0,0,59.656,41.2Z" transform="translate(0 0)" fill="#f4831f"/>
    </g>
  </g>
</svg>
