<svg xmlns="http://www.w3.org/2000/svg" width="36" height="35.711" viewBox="0 0 36 35.711">
  <g id="Github_black" transform="translate(-0.088 -0.18)">
    <path id="Caminho_33" data-name="Caminho 33" d="M18.088.18a18.156,18.156,0,0,0-18,18.307A18.287,18.287,0,0,0,12.4,35.86c.9.17,1.23-.4,1.23-.881,0-.437-.017-1.879-.024-3.408C8.6,32.678,7.538,29.41,7.538,29.41a4.827,4.827,0,0,0-2-2.679c-1.633-1.136.123-1.113.123-1.113a3.79,3.79,0,0,1,2.759,1.887,3.8,3.8,0,0,0,5.238,1.522A3.924,3.924,0,0,1,14.8,26.579c-4-.463-8.2-2.033-8.2-9.048a7.153,7.153,0,0,1,1.855-4.914,6.683,6.683,0,0,1,.174-4.845s1.512-.492,4.951,1.877a16.8,16.8,0,0,1,9.015,0c3.436-2.369,4.945-1.877,4.945-1.877a6.674,6.674,0,0,1,.176,4.845,7.139,7.139,0,0,1,1.853,4.914c0,7.032-4.211,8.58-8.219,9.033a4.416,4.416,0,0,1,1.221,3.39c0,2.449-.021,4.421-.021,5.024,0,.487.324,1.058,1.236.878a18.285,18.285,0,0,0,12.3-17.37A18.156,18.156,0,0,0,18.088.18Z" transform="translate(0 0)" fill-rule="evenodd"/>
    <path id="Caminho_34" data-name="Caminho 34" d="M9,35.06c-.04.091-.18.118-.309.056s-.2-.184-.162-.275.18-.12.31-.057S9.047,34.968,9,35.06Z" transform="translate(-2.093 -8.594)" fill-rule="evenodd"/>
    <path id="Caminho_35" data-name="Caminho 35" d="M9.975,36.1c-.086.081-.254.043-.368-.085a.283.283,0,0,1-.053-.381c.089-.081.251-.043.369.085S10.065,36.013,9.975,36.1Z" transform="translate(-2.34 -8.803)" fill-rule="evenodd"/>
    <path id="Caminho_36" data-name="Caminho 36" d="M10.916,37.459c-.11.078-.291,0-.4-.158s-.11-.358,0-.436.29-.008.4.154A.327.327,0,0,1,10.916,37.459Z" transform="translate(-2.571 -9.112)" fill-rule="evenodd"/>
    <path id="Caminho_37" data-name="Caminho 37" d="M12.166,38.822c-.1.111-.309.081-.463-.07a.356.356,0,0,1-.1-.468c.1-.111.311-.08.466.07S12.271,38.713,12.166,38.822Z" transform="translate(-2.849 -9.459)" fill-rule="evenodd"/>
    <path id="Caminho_38" data-name="Caminho 38" d="M13.906,39.677c-.044.143-.246.209-.45.148s-.337-.231-.3-.376.246-.212.451-.147S13.948,39.531,13.906,39.677Z" transform="translate(-3.248 -9.722)" fill-rule="evenodd"/>
    <path id="Caminho_39" data-name="Caminho 39" d="M15.86,39.867c.005.151-.168.276-.382.279s-.389-.117-.392-.266.169-.277.384-.28S15.86,39.717,15.86,39.867Z" transform="translate(-3.729 -9.802)" fill-rule="evenodd"/>
    <path id="Caminho_40" data-name="Caminho 40" d="M17.686,39.57c.026.147-.123.3-.336.339s-.4-.052-.429-.2.126-.3.334-.342S17.659,39.42,17.686,39.57Z" transform="translate(-4.184 -9.743)" fill-rule="evenodd"/>
  </g>
</svg>
