<svg id="Instagram_black" xmlns="http://www.w3.org/2000/svg" width="36" height="36" viewBox="0 0 36 36">
  <path id="Caminho_30" data-name="Caminho 30" d="M0,18A18,18,0,1,1,18,36,18,18,0,0,1,0,18ZM18,8.4c-2.607,0-2.934.011-3.958.058a7.046,7.046,0,0,0-2.33.446A4.911,4.911,0,0,0,8.9,11.711a7.013,7.013,0,0,0-.446,2.33C8.412,15.065,8.4,15.393,8.4,18s.012,2.933.058,3.957a7.055,7.055,0,0,0,.446,2.33A4.913,4.913,0,0,0,11.711,27.1a7.052,7.052,0,0,0,2.33.446c1.024.047,1.351.058,3.958.058s2.934-.011,3.958-.058a7.057,7.057,0,0,0,2.331-.446A4.919,4.919,0,0,0,27.1,24.288a7.115,7.115,0,0,0,.446-2.33c.046-1.024.058-1.35.058-3.958s-.012-2.934-.058-3.958a7.112,7.112,0,0,0-.446-2.33A4.912,4.912,0,0,0,24.288,8.9a7.068,7.068,0,0,0-2.332-.446C20.932,8.411,20.606,8.4,18,8.4Z" fill-rule="evenodd"/>
  <path id="Caminho_31" data-name="Caminho 31" d="M20.528,13.506h.863c2.568,0,2.872.009,3.886.055a5.325,5.325,0,0,1,1.785.331,3.186,3.186,0,0,1,1.825,1.825,5.313,5.313,0,0,1,.331,1.785c.046,1.014.056,1.318.056,3.885s-.01,2.871-.056,3.885a5.319,5.319,0,0,1-.331,1.785,3.189,3.189,0,0,1-1.825,1.824,5.306,5.306,0,0,1-1.785.331c-1.014.046-1.318.056-3.886.056s-2.872-.01-3.886-.056a5.334,5.334,0,0,1-1.786-.332,3.185,3.185,0,0,1-1.825-1.824,5.313,5.313,0,0,1-.331-1.785c-.046-1.014-.055-1.318-.055-3.886s.009-2.871.055-3.885a5.323,5.323,0,0,1,.331-1.785,3.187,3.187,0,0,1,1.825-1.825,5.312,5.312,0,0,1,1.786-.332c.887-.04,1.231-.052,3.023-.054Zm6,1.6a1.154,1.154,0,1,0,1.154,1.154A1.154,1.154,0,0,0,26.524,15.1Zm-5.133,1.348a4.938,4.938,0,1,0,4.938,4.938A4.939,4.939,0,0,0,21.391,16.451Z" transform="translate(-3.39 -3.389)" fill-rule="evenodd"/>
  <path id="Caminho_32" data-name="Caminho 32" d="M22.94,19.733a3.205,3.205,0,1,1-3.205,3.205A3.205,3.205,0,0,1,22.94,19.733Z" transform="translate(-4.939 -4.939)" fill-rule="evenodd"/>
</svg>
