<svg xmlns="http://www.w3.org/2000/svg" width="36" height="36" viewBox="0 0 36 36">
  <path id="LinkedIN_black" d="M0,18A18,18,0,1,1,18,36,18,18,0,0,1,0,18Zm12.72-3.092H8.641V27.165H12.72Zm.269-3.791A2.119,2.119,0,0,0,10.708,9a2.124,2.124,0,1,0-.053,4.235h.026A2.128,2.128,0,0,0,12.989,11.117Zm14.442,9.02c0-3.765-2.012-5.517-4.7-5.517a4.05,4.05,0,0,0-3.677,2.024V14.909h-4.08c.054,1.15,0,12.256,0,12.256h4.08V20.32a2.786,2.786,0,0,1,.134-.994,2.232,2.232,0,0,1,2.093-1.489c1.477,0,2.067,1.124,2.067,2.771v6.557h4.079Z" fill-rule="evenodd"/>
</svg>
