<svg xmlns="http://www.w3.org/2000/svg" width="36" height="36" viewBox="0 0 36 36">
  <path id="Twitter_black" d="M0,18A18,18,0,1,1,18,36,18,18,0,0,1,0,18Zm17.461-3.369.038.623-.63-.076a10.24,10.24,0,0,1-5.993-2.949l-.831-.826-.214.61a3.668,3.668,0,0,0,.781,3.762c.5.534.39.61-.478.292a1.485,1.485,0,0,0-.592-.14,4.555,4.555,0,0,0,.453,1.7,4.066,4.066,0,0,0,1.725,1.627l.617.292-.73.013c-.705,0-.73.013-.655.28a3.806,3.806,0,0,0,2.354,2.085l.781.267-.68.407a7.089,7.089,0,0,1-3.374.941,3.724,3.724,0,0,0-1.032.1,9.582,9.582,0,0,0,2.43,1.119,10.635,10.635,0,0,0,8.259-.941,11.053,11.053,0,0,0,4.193-4.932,13.111,13.111,0,0,0,.856-3.813c0-.585.038-.661.743-1.36a8.3,8.3,0,0,0,.881-.979c.126-.242.113-.242-.529-.025-1.07.381-1.221.331-.692-.241A3.7,3.7,0,0,0,26,11.11c0-.038-.189.025-.4.14a7.023,7.023,0,0,1-1.108.432l-.68.216-.617-.419a5.124,5.124,0,0,0-1.07-.559,4.3,4.3,0,0,0-2.2.051A3.639,3.639,0,0,0,17.461,14.631Z" fill-rule="evenodd"/>
</svg>
