<svg id="WhatsApp_black" xmlns="http://www.w3.org/2000/svg" width="36" height="36" viewBox="0 0 36 36">
  <path id="Caminho_28" data-name="Caminho 28" d="M18,36A18,18,0,1,1,36,18,18,18,0,0,1,18,36Zm.593-7.986a10.7,10.7,0,1,0-9.275-5.361L7.8,28.2l5.674-1.488a10.694,10.694,0,0,0,5.115,1.3Z" fill-rule="evenodd"/>
  <path id="Caminho_29" data-name="Caminho 29" d="M17.034,27.837l-3.421.9.913-3.335-.215-.342a9.038,9.038,0,1,1,7.656,4.235h0a9.025,9.025,0,0,1-4.6-1.26Zm10.412-5c-.068-.113-.249-.181-.521-.317s-1.607-.793-1.857-.884-.43-.136-.611.136-.7.884-.86,1.065-.317.2-.589.068a7.42,7.42,0,0,1-2.185-1.349,8.189,8.189,0,0,1-1.512-1.882c-.158-.272-.017-.419.119-.555s.272-.317.408-.476a1.853,1.853,0,0,0,.272-.453.5.5,0,0,0-.023-.476c-.068-.136-.611-1.473-.838-2.017s-.445-.458-.611-.466-.34-.01-.521-.01a1,1,0,0,0-.725.34,3.047,3.047,0,0,0-.951,2.267,5.285,5.285,0,0,0,1.109,2.811,12.112,12.112,0,0,0,4.641,4.1,15.6,15.6,0,0,0,1.549.572,3.722,3.722,0,0,0,1.711.108,2.8,2.8,0,0,0,1.834-1.292A2.273,2.273,0,0,0,27.445,22.841Z" transform="translate(-3.383 -2.934)" fill-rule="evenodd"/>
</svg>
