<svg id="Youtube_black" xmlns="http://www.w3.org/2000/svg" width="36" height="36" viewBox="0 0 36 36">
  <path id="Caminho_26" data-name="Caminho 26" d="M0,18A18,18,0,1,1,18,36,18,18,0,0,1,0,18Zm27.2-4.445a2.438,2.438,0,0,0-1.7-1.743C24,11.4,18,11.4,18,11.4s-6,0-7.5.412a2.438,2.438,0,0,0-1.7,1.743A26.333,26.333,0,0,0,8.4,18.3a26.334,26.334,0,0,0,.4,4.745,2.438,2.438,0,0,0,1.7,1.743C12,25.2,18,25.2,18,25.2s6,0,7.5-.412a2.438,2.438,0,0,0,1.7-1.743,26.324,26.324,0,0,0,.4-4.745A26.323,26.323,0,0,0,27.2,13.555Z" fill-rule="evenodd"/>
  <path id="Caminho_27" data-name="Caminho 27" d="M21.6,26.8v-6l4.8,3Z" transform="translate(-5.4 -5.2)" fill-rule="evenodd"/>
</svg>
