<svg xmlns="http://www.w3.org/2000/svg" width="71.78" height="71.727"><path data-name="Caminho 7" d="M61.342 61.436l-32.339 8.348a10.552 10.552 0 01-12.83-7.557l-8-31.284a10.552 10.552 0 017.56-12.835L48.072 9.76a10.552 10.552 0 0112.83 7.557l8 31.284a10.524 10.524 0 01-7.56 12.835z" fill="#fff"/><path data-name="Caminho 8" d="M71.536 50.803L60.287 5.897A7.723 7.723 0 0050.796.273L5.891 11.522a7.661 7.661 0 00-5.624 9.4L11.515 65.83a7.723 7.723 0 009.489 5.624l37.436-9.315-.264-.264c-1.582-1.67-3.779-2.373-6.679-2.285l-21.618-.264c-5.8 0-7.557-4.218-7.645-6.5l-1.579-16.259h-5.8a1.763 1.763 0 01-1.758-1.756 1.6 1.6 0 01.527-1.23l20.74-20.038a1.648 1.648 0 012.285-.088L58.53 32.7a1.619 1.619 0 01.264 2.373 1.522 1.522 0 01-1.406.615h-4.57v15.466a1.763 1.763 0 01-1.758 1.757l-11.6-.088-3.427-9.491-3.515 5.273V28.394l12.918 15.379-6.064-1.318s1.23 3.954 2.109 6.942h8.085V34.111a1.763 1.763 0 011.758-1.758h1.758l-17.4-15.2-16.521 16.074h3.163a1.8 1.8 0 011.758 1.584L25.84 52.65c0 .527.352 3.251 4.218 3.251l21.53.176q5.932-.264 9.227 3.427a8.357 8.357 0 011.318 1.758l3.779-.967a7.751 7.751 0 005.624-9.492z" fill="#f4831f"/></svg>