<svg xmlns="http://www.w3.org/2000/svg" width="77.758" height="37.359"><path data-name="Caminho 22" d="M50.114 18.245l6.358-12.641-3.2-4.735-6.356 12.643z" fill="#1b1464"/><path data-name="Caminho 23" d="M65.16 18.886l-8.213-12.8-6.123 12.819 8.213 12.806z" fill="#1b1464"/><path data-name="Caminho 24" d="M52.997 0h-14.77l8.465 13.032z" fill="#1b1464"/><path data-name="Caminho 25" d="M65.845 19.548l-6.331 12.721 3.4 5.09h14.84z" fill="#1b1464"/><path data-name="Caminho 26" d="M15.705 37.359a9.137 9.137 0 01-8.219-13.195L19.523 0h14.794z" fill="#1b1464"/><path data-name="Caminho 27" d="M52.997 0h-14.79L26.163 24.164a9.138 9.138 0 008.223 13.194z" fill="#1b1464"/><path data-name="Caminho 28" d="M15.638 0H.891a8.4 8.4 0 007.452 12.163h1.28z" fill="#1b1464"/><path data-name="Caminho 29" d="M74.717 0H60.096L41.703 37.358h14.621z" fill="#1b1464"/></svg>