<svg xmlns="http://www.w3.org/2000/svg" width="69.551" height="69.551"><g fill="#5ecbd5" fill-rule="evenodd"><path data-name="Caminho 9" d="M54.586 18.746a3.075 3.075 0 11-3.062 3.062 3.063 3.063 0 013.062-3.062"/><path data-name="Caminho 10" d="M15.151 18.746a3.075 3.075 0 11-3.062 3.062 3.063 3.063 0 013.062-3.062"/><path data-name="Caminho 11" d="M54.559 0H15.018A15.069 15.069 0 000 15.018v39.515a15.069 15.069 0 0015.018 15.018h39.515a15.069 15.069 0 0015.018-15.018V15.044A15.035 15.035 0 0054.559 0zm9.879 24.471v24.923A15.069 15.069 0 0149.42 64.412H20.53A15.069 15.069 0 015.512 49.394V18.826s0-5.512 3.648-6.817c3.834-1.358 8.414 1.678 13.793 5.778s10.944 10.465 21.089.506c7.669-7.509 11.823-8.92 14.192-8.92a6.093 6.093 0 011.811.293c1.6.453 4.367 2.423 4.367 9.16v5.645z"/><path data-name="Caminho 12" d="M59.352 28.252c-1.784-.027-3.568-.027-5.352-.027-6.391 0-12.834.133-19.225.16-8.175-.027-16.429-.24-24.577-.107-1.811.027-2.716.293-2.689 1.518.4 14.272 12.754 21.675 27.24 21.462 14.485.213 26.84-7.189 27.24-21.462.08-1.251-.825-1.518-2.636-1.544zm-26.2 1.145h3.249c.533 0 1.065 0 1.571.027l-.879 1.784c-.746 1.544-1.518 2.237-2.317 2.21-.8.027-1.571-.666-2.317-2.21l-.879-1.783c.506 0 1.038-.027 1.571-.027zm-16.429 1.811c-.746 1.544-1.518 2.237-2.317 2.21-.8.027-1.571-.666-2.317-2.21v-.027a26.121 26.121 0 012.423-.479c.825-.133 1.731-.266 2.689-.4l-.479.905zm6.79 0c-.746 1.544-1.518 2.237-2.317 2.21-.8.027-1.571-.666-2.317-2.21l-.506-1.038a89.925 89.925 0 015.911-.479l-.772 1.518zm2.13 0l-.772-1.571c2-.107 4.1-.186 6.284-.213l-.879 1.784c-.746 1.544-1.518 2.237-2.317 2.21-.772 0-1.544-.692-2.317-2.21zm9.053 17.681a7.268 7.268 0 01-3.036-13.873c2.423-.959 3.169 1.065 2.849 2.37-.266 1.145-.852 1.012-1.278 1.784a1.757 1.757 0 00-.213.852 1.758 1.758 0 103.515 0 1.921 1.921 0 00-.213-.852c-.426-.772-1.012-.639-1.278-1.784-.266-1.065.186-2.636 1.7-2.636a2.475 2.475 0 01.719.107 7.282 7.282 0 01-2.769 14.033zm9.16-17.681c-.746 1.544-1.518 2.237-2.317 2.21-.8.027-1.571-.666-2.317-2.21l-.879-1.784c2.183.027 4.287.107 6.284.213l-.772 1.571zm6.79 0c-.746 1.544-1.518 2.237-2.317 2.21-.8.027-1.571-.666-2.317-2.21l-.746-1.544c2.1.133 4.1.293 5.911.479l-.533 1.065zm6.763 0c-.746 1.544-1.518 2.237-2.317 2.21-.8.027-1.571-.666-2.317-2.21l-.453-.905a39.472 39.472 0 015.086.905z"/></g></svg>