<svg xmlns="http://www.w3.org/2000/svg" width="222.83" height="167.44" viewBox="0 0 222.83 167.44">
  <g id="logo-min" transform="translate(-521.82 -268.78)">
    <path id="Caminho_5" data-name="Caminho 5" d="M96.37,3.22q-25.3,0-45.425-10.695A79.976,79.976,0,0,1,19.32-37.26Q7.82-56.35,7.82-80.5t11.5-43.24a79.976,79.976,0,0,1,31.625-29.785Q71.07-164.22,96.37-164.22q22.08,0,39.79,7.82a76.556,76.556,0,0,1,29.44,22.54l-28.98,26.22Q120.98-126.5,98.67-126.5a46.837,46.837,0,0,0-23.345,5.75,39.908,39.908,0,0,0-15.87,16.215A49.9,49.9,0,0,0,53.82-80.5a49.9,49.9,0,0,0,5.635,24.035A39.908,39.908,0,0,0,75.325-40.25,46.837,46.837,0,0,0,98.67-34.5q22.31,0,37.95-18.86L165.6-27.14A76.556,76.556,0,0,1,136.16-4.6Q118.45,3.22,96.37,3.22Z" transform="translate(514 433)" fill="#222f3e"/>
    <path id="Caminho_6" data-name="Caminho 6" d="M32.43,2.07A25.74,25.74,0,0,1,13.8-5.29Q6.21-12.65,6.21-23.92q0-11.5,7.475-18.63T32.43-49.68q11.5,0,18.86,7.13t7.36,18.63q0,11.27-7.475,18.63T32.43,2.07Z" transform="translate(686 433)" fill="#ee5253"/>
  </g>
</svg>
